<mxfile host="app.diagrams.net" modified="2024-11-26T15:37:14.686Z" agent="Mozilla/5.0 (Windows NT 10.0; Win64; x64) AppleWebKit/537.36 (KHTML, like Gecko) Chrome/131.0.0.0 Safari/537.36" etag="uVyuSswY_NWj32Y6Npze" version="21.5.0" type="device">
  <diagram name="Page-1" id="F10LXunICJk9rZ-ggvHp">
    <mxGraphModel dx="1050" dy="1145" grid="1" gridSize="10" guides="1" tooltips="1" connect="1" arrows="1" fold="1" page="1" pageScale="1" pageWidth="413" pageHeight="583" math="0" shadow="0">
      <root>
        <mxCell id="0" />
        <mxCell id="1" parent="0" />
        <mxCell id="3VOU5mvbuk7q2b9fPozU-1" value="Client" style="swimlane;fontStyle=0;childLayout=stackLayout;horizontal=1;startSize=30;horizontalStack=0;resizeParent=1;resizeParentMax=0;resizeLast=0;collapsible=1;marginBottom=0;whiteSpace=wrap;html=1;" vertex="1" parent="1">
          <mxGeometry x="40" y="40" width="140" height="90" as="geometry" />
        </mxCell>
        <mxCell id="3VOU5mvbuk7q2b9fPozU-2" value="&lt;u&gt;id&lt;/u&gt;" style="text;strokeColor=none;fillColor=none;align=left;verticalAlign=middle;spacingLeft=4;spacingRight=4;overflow=hidden;points=[[0,0.5],[1,0.5]];portConstraint=eastwest;rotatable=0;whiteSpace=wrap;html=1;" vertex="1" parent="3VOU5mvbuk7q2b9fPozU-1">
          <mxGeometry y="30" width="140" height="30" as="geometry" />
        </mxCell>
        <mxCell id="3VOU5mvbuk7q2b9fPozU-3" value="nom" style="text;strokeColor=none;fillColor=none;align=left;verticalAlign=middle;spacingLeft=4;spacingRight=4;overflow=hidden;points=[[0,0.5],[1,0.5]];portConstraint=eastwest;rotatable=0;whiteSpace=wrap;html=1;" vertex="1" parent="3VOU5mvbuk7q2b9fPozU-1">
          <mxGeometry y="60" width="140" height="30" as="geometry" />
        </mxCell>
        <mxCell id="3VOU5mvbuk7q2b9fPozU-5" value="Commande" style="ellipse;whiteSpace=wrap;html=1;" vertex="1" parent="1">
          <mxGeometry x="240" y="40" width="140" height="70" as="geometry" />
        </mxCell>
        <mxCell id="3VOU5mvbuk7q2b9fPozU-6" value="commande" style="swimlane;fontStyle=0;childLayout=stackLayout;horizontal=1;startSize=30;horizontalStack=0;resizeParent=1;resizeParentMax=0;resizeLast=0;collapsible=1;marginBottom=0;whiteSpace=wrap;html=1;" vertex="1" parent="1">
          <mxGeometry x="440" y="40" width="140" height="120" as="geometry" />
        </mxCell>
        <mxCell id="3VOU5mvbuk7q2b9fPozU-7" value="&lt;u&gt;id&lt;/u&gt;" style="text;strokeColor=none;fillColor=none;align=left;verticalAlign=middle;spacingLeft=4;spacingRight=4;overflow=hidden;points=[[0,0.5],[1,0.5]];portConstraint=eastwest;rotatable=0;whiteSpace=wrap;html=1;" vertex="1" parent="3VOU5mvbuk7q2b9fPozU-6">
          <mxGeometry y="30" width="140" height="30" as="geometry" />
        </mxCell>
        <mxCell id="3VOU5mvbuk7q2b9fPozU-8" value="objet commandé" style="text;strokeColor=none;fillColor=none;align=left;verticalAlign=middle;spacingLeft=4;spacingRight=4;overflow=hidden;points=[[0,0.5],[1,0.5]];portConstraint=eastwest;rotatable=0;whiteSpace=wrap;html=1;" vertex="1" parent="3VOU5mvbuk7q2b9fPozU-6">
          <mxGeometry y="60" width="140" height="30" as="geometry" />
        </mxCell>
        <mxCell id="3VOU5mvbuk7q2b9fPozU-9" value="quantité" style="text;strokeColor=none;fillColor=none;align=left;verticalAlign=middle;spacingLeft=4;spacingRight=4;overflow=hidden;points=[[0,0.5],[1,0.5]];portConstraint=eastwest;rotatable=0;whiteSpace=wrap;html=1;" vertex="1" parent="3VOU5mvbuk7q2b9fPozU-6">
          <mxGeometry y="90" width="140" height="30" as="geometry" />
        </mxCell>
        <mxCell id="3VOU5mvbuk7q2b9fPozU-10" value="" style="endArrow=none;html=1;rounded=0;entryX=0;entryY=0.5;entryDx=0;entryDy=0;exitX=1;exitY=0.5;exitDx=0;exitDy=0;" edge="1" parent="1" source="3VOU5mvbuk7q2b9fPozU-2" target="3VOU5mvbuk7q2b9fPozU-7">
          <mxGeometry width="50" height="50" relative="1" as="geometry">
            <mxPoint x="200" y="320" as="sourcePoint" />
            <mxPoint x="250" y="270" as="targetPoint" />
          </mxGeometry>
        </mxCell>
        <mxCell id="3VOU5mvbuk7q2b9fPozU-11" value="1" style="text;html=1;strokeColor=none;fillColor=none;align=center;verticalAlign=middle;whiteSpace=wrap;rounded=0;" vertex="1" parent="1">
          <mxGeometry x="180" y="50" width="20" height="30" as="geometry" />
        </mxCell>
        <mxCell id="3VOU5mvbuk7q2b9fPozU-12" value="N" style="text;html=1;strokeColor=none;fillColor=none;align=center;verticalAlign=middle;whiteSpace=wrap;rounded=0;" vertex="1" parent="1">
          <mxGeometry x="414" y="50" width="20" height="30" as="geometry" />
        </mxCell>
        <mxCell id="3VOU5mvbuk7q2b9fPozU-17" value="Ville" style="swimlane;fontStyle=0;childLayout=stackLayout;horizontal=1;startSize=30;horizontalStack=0;resizeParent=1;resizeParentMax=0;resizeLast=0;collapsible=1;marginBottom=0;whiteSpace=wrap;html=1;" vertex="1" parent="1">
          <mxGeometry x="45" y="270" width="140" height="90" as="geometry" />
        </mxCell>
        <mxCell id="3VOU5mvbuk7q2b9fPozU-18" value="&lt;u&gt;numVille&lt;/u&gt;" style="text;strokeColor=none;fillColor=none;align=left;verticalAlign=middle;spacingLeft=4;spacingRight=4;overflow=hidden;points=[[0,0.5],[1,0.5]];portConstraint=eastwest;rotatable=0;whiteSpace=wrap;html=1;" vertex="1" parent="3VOU5mvbuk7q2b9fPozU-17">
          <mxGeometry y="30" width="140" height="30" as="geometry" />
        </mxCell>
        <mxCell id="3VOU5mvbuk7q2b9fPozU-19" value="nomVille" style="text;strokeColor=none;fillColor=none;align=left;verticalAlign=middle;spacingLeft=4;spacingRight=4;overflow=hidden;points=[[0,0.5],[1,0.5]];portConstraint=eastwest;rotatable=0;whiteSpace=wrap;html=1;" vertex="1" parent="3VOU5mvbuk7q2b9fPozU-17">
          <mxGeometry y="60" width="140" height="30" as="geometry" />
        </mxCell>
        <mxCell id="3VOU5mvbuk7q2b9fPozU-23" value="Gare" style="swimlane;fontStyle=0;childLayout=stackLayout;horizontal=1;startSize=30;horizontalStack=0;resizeParent=1;resizeParentMax=0;resizeLast=0;collapsible=1;marginBottom=0;whiteSpace=wrap;html=1;" vertex="1" parent="1">
          <mxGeometry x="445" y="270" width="140" height="90" as="geometry" />
        </mxCell>
        <mxCell id="3VOU5mvbuk7q2b9fPozU-24" value="&lt;u&gt;numGare&lt;/u&gt;" style="text;strokeColor=none;fillColor=none;align=left;verticalAlign=middle;spacingLeft=4;spacingRight=4;overflow=hidden;points=[[0,0.5],[1,0.5]];portConstraint=eastwest;rotatable=0;whiteSpace=wrap;html=1;" vertex="1" parent="3VOU5mvbuk7q2b9fPozU-23">
          <mxGeometry y="30" width="140" height="30" as="geometry" />
        </mxCell>
        <mxCell id="3VOU5mvbuk7q2b9fPozU-25" value="nom Gare" style="text;strokeColor=none;fillColor=none;align=left;verticalAlign=middle;spacingLeft=4;spacingRight=4;overflow=hidden;points=[[0,0.5],[1,0.5]];portConstraint=eastwest;rotatable=0;whiteSpace=wrap;html=1;" vertex="1" parent="3VOU5mvbuk7q2b9fPozU-23">
          <mxGeometry y="60" width="140" height="30" as="geometry" />
        </mxCell>
        <mxCell id="3VOU5mvbuk7q2b9fPozU-27" value="" style="rounded=1;whiteSpace=wrap;html=1;arcSize=20;strokeWidth=1;shadow=0;perimeterSpacing=0;" vertex="1" parent="1">
          <mxGeometry x="245" y="285" width="120" height="60" as="geometry" />
        </mxCell>
        <mxCell id="3VOU5mvbuk7q2b9fPozU-28" value="Etre située" style="text;html=1;strokeColor=none;fillColor=none;align=center;verticalAlign=middle;whiteSpace=wrap;rounded=0;" vertex="1" parent="1">
          <mxGeometry x="275" y="285" width="60" height="30" as="geometry" />
        </mxCell>
        <mxCell id="3VOU5mvbuk7q2b9fPozU-29" value="" style="rounded=1;whiteSpace=wrap;html=1;arcSize=20;strokeWidth=1;shadow=0;perimeterSpacing=0;" vertex="1" parent="1">
          <mxGeometry x="450" y="430" width="120" height="90" as="geometry" />
        </mxCell>
        <mxCell id="3VOU5mvbuk7q2b9fPozU-30" value="Rouler" style="text;html=1;strokeColor=none;fillColor=none;align=center;verticalAlign=middle;whiteSpace=wrap;rounded=0;" vertex="1" parent="1">
          <mxGeometry x="480" y="430" width="60" height="30" as="geometry" />
        </mxCell>
        <mxCell id="3VOU5mvbuk7q2b9fPozU-31" value="H départ" style="text;html=1;strokeColor=none;fillColor=none;align=center;verticalAlign=middle;whiteSpace=wrap;rounded=0;" vertex="1" parent="1">
          <mxGeometry x="480" y="460" width="60" height="30" as="geometry" />
        </mxCell>
        <mxCell id="3VOU5mvbuk7q2b9fPozU-32" value="H arrivée" style="text;html=1;strokeColor=none;fillColor=none;align=center;verticalAlign=middle;whiteSpace=wrap;rounded=0;" vertex="1" parent="1">
          <mxGeometry x="480" y="480" width="60" height="30" as="geometry" />
        </mxCell>
        <mxCell id="3VOU5mvbuk7q2b9fPozU-33" value="Train" style="swimlane;fontStyle=0;childLayout=stackLayout;horizontal=1;startSize=30;horizontalStack=0;resizeParent=1;resizeParentMax=0;resizeLast=0;collapsible=1;marginBottom=0;whiteSpace=wrap;html=1;" vertex="1" parent="1">
          <mxGeometry x="230" y="430" width="140" height="90" as="geometry" />
        </mxCell>
        <mxCell id="3VOU5mvbuk7q2b9fPozU-34" value="&lt;u&gt;NoTrain&lt;/u&gt;" style="text;strokeColor=none;fillColor=none;align=left;verticalAlign=middle;spacingLeft=4;spacingRight=4;overflow=hidden;points=[[0,0.5],[1,0.5]];portConstraint=eastwest;rotatable=0;whiteSpace=wrap;html=1;" vertex="1" parent="3VOU5mvbuk7q2b9fPozU-33">
          <mxGeometry y="30" width="140" height="30" as="geometry" />
        </mxCell>
        <mxCell id="3VOU5mvbuk7q2b9fPozU-35" value="Type Train" style="text;strokeColor=none;fillColor=none;align=left;verticalAlign=middle;spacingLeft=4;spacingRight=4;overflow=hidden;points=[[0,0.5],[1,0.5]];portConstraint=eastwest;rotatable=0;whiteSpace=wrap;html=1;" vertex="1" parent="3VOU5mvbuk7q2b9fPozU-33">
          <mxGeometry y="60" width="140" height="30" as="geometry" />
        </mxCell>
        <mxCell id="3VOU5mvbuk7q2b9fPozU-37" value="" style="rounded=1;whiteSpace=wrap;html=1;arcSize=20;strokeWidth=1;shadow=0;perimeterSpacing=0;" vertex="1" parent="1">
          <mxGeometry x="50" y="430" width="120" height="60" as="geometry" />
        </mxCell>
        <mxCell id="3VOU5mvbuk7q2b9fPozU-38" value="Posséder" style="text;html=1;strokeColor=none;fillColor=none;align=center;verticalAlign=middle;whiteSpace=wrap;rounded=0;" vertex="1" parent="1">
          <mxGeometry x="80" y="430" width="60" height="30" as="geometry" />
        </mxCell>
        <mxCell id="3VOU5mvbuk7q2b9fPozU-39" value="Réservation" style="swimlane;fontStyle=0;childLayout=stackLayout;horizontal=1;startSize=30;horizontalStack=0;resizeParent=1;resizeParentMax=0;resizeLast=0;collapsible=1;marginBottom=0;whiteSpace=wrap;html=1;" vertex="1" parent="1">
          <mxGeometry x="40" y="560" width="140" height="90" as="geometry" />
        </mxCell>
        <mxCell id="3VOU5mvbuk7q2b9fPozU-40" value="&lt;u&gt;codeResa&lt;/u&gt;" style="text;strokeColor=none;fillColor=none;align=left;verticalAlign=middle;spacingLeft=4;spacingRight=4;overflow=hidden;points=[[0,0.5],[1,0.5]];portConstraint=eastwest;rotatable=0;whiteSpace=wrap;html=1;" vertex="1" parent="3VOU5mvbuk7q2b9fPozU-39">
          <mxGeometry y="30" width="140" height="30" as="geometry" />
        </mxCell>
        <mxCell id="3VOU5mvbuk7q2b9fPozU-41" value="prix" style="text;strokeColor=none;fillColor=none;align=left;verticalAlign=middle;spacingLeft=4;spacingRight=4;overflow=hidden;points=[[0,0.5],[1,0.5]];portConstraint=eastwest;rotatable=0;whiteSpace=wrap;html=1;" vertex="1" parent="3VOU5mvbuk7q2b9fPozU-39">
          <mxGeometry y="60" width="140" height="30" as="geometry" />
        </mxCell>
        <mxCell id="3VOU5mvbuk7q2b9fPozU-42" value="" style="endArrow=none;html=1;rounded=0;entryX=0.003;entryY=0.907;entryDx=0;entryDy=0;entryPerimeter=0;exitX=1.009;exitY=-0.12;exitDx=0;exitDy=0;exitPerimeter=0;" edge="1" parent="1" source="3VOU5mvbuk7q2b9fPozU-19" target="3VOU5mvbuk7q2b9fPozU-24">
          <mxGeometry width="50" height="50" relative="1" as="geometry">
            <mxPoint x="205" y="380" as="sourcePoint" />
            <mxPoint x="255" y="330" as="targetPoint" />
          </mxGeometry>
        </mxCell>
        <mxCell id="3VOU5mvbuk7q2b9fPozU-43" value="" style="endArrow=none;html=1;rounded=0;entryX=-0.023;entryY=-0.027;entryDx=0;entryDy=0;entryPerimeter=0;" edge="1" parent="1" target="3VOU5mvbuk7q2b9fPozU-34">
          <mxGeometry width="50" height="50" relative="1" as="geometry">
            <mxPoint x="50" y="460" as="sourcePoint" />
            <mxPoint x="100" y="410" as="targetPoint" />
          </mxGeometry>
        </mxCell>
        <mxCell id="3VOU5mvbuk7q2b9fPozU-44" value="" style="endArrow=none;html=1;rounded=0;entryX=0.987;entryY=0.369;entryDx=0;entryDy=0;entryPerimeter=0;" edge="1" parent="1" target="3VOU5mvbuk7q2b9fPozU-29">
          <mxGeometry width="50" height="50" relative="1" as="geometry">
            <mxPoint x="370" y="460" as="sourcePoint" />
            <mxPoint x="547" y="459" as="targetPoint" />
          </mxGeometry>
        </mxCell>
        <mxCell id="3VOU5mvbuk7q2b9fPozU-45" value="" style="endArrow=none;html=1;rounded=0;entryX=0.5;entryY=1;entryDx=0;entryDy=0;exitX=0.5;exitY=0;exitDx=0;exitDy=0;" edge="1" parent="1" source="3VOU5mvbuk7q2b9fPozU-39" target="3VOU5mvbuk7q2b9fPozU-37">
          <mxGeometry width="50" height="50" relative="1" as="geometry">
            <mxPoint x="100" y="560" as="sourcePoint" />
            <mxPoint x="150" y="510" as="targetPoint" />
          </mxGeometry>
        </mxCell>
        <mxCell id="3VOU5mvbuk7q2b9fPozU-46" value="" style="endArrow=none;html=1;rounded=0;entryX=0.5;entryY=1;entryDx=0;entryDy=0;exitX=0.5;exitY=0;exitDx=0;exitDy=0;" edge="1" parent="1">
          <mxGeometry width="50" height="50" relative="1" as="geometry">
            <mxPoint x="509.5" y="430" as="sourcePoint" />
            <mxPoint x="509.5" y="360" as="targetPoint" />
          </mxGeometry>
        </mxCell>
        <mxCell id="3VOU5mvbuk7q2b9fPozU-47" value="1..N" style="text;html=1;strokeColor=none;fillColor=none;align=center;verticalAlign=middle;whiteSpace=wrap;rounded=0;" vertex="1" parent="1">
          <mxGeometry x="210" y="290" width="20" height="30" as="geometry" />
        </mxCell>
        <mxCell id="3VOU5mvbuk7q2b9fPozU-48" value="0..0" style="text;html=1;strokeColor=none;fillColor=none;align=center;verticalAlign=middle;whiteSpace=wrap;rounded=0;" vertex="1" parent="1">
          <mxGeometry x="394" y="290" width="20" height="30" as="geometry" />
        </mxCell>
        <mxCell id="3VOU5mvbuk7q2b9fPozU-49" value="1..N" style="text;html=1;strokeColor=none;fillColor=none;align=center;verticalAlign=middle;whiteSpace=wrap;rounded=0;" vertex="1" parent="1">
          <mxGeometry x="520" y="380" width="20" height="30" as="geometry" />
        </mxCell>
        <mxCell id="3VOU5mvbuk7q2b9fPozU-51" value="0..1" style="text;html=1;strokeColor=none;fillColor=none;align=center;verticalAlign=middle;whiteSpace=wrap;rounded=0;" vertex="1" parent="1">
          <mxGeometry x="404" y="420" width="20" height="30" as="geometry" />
        </mxCell>
        <mxCell id="3VOU5mvbuk7q2b9fPozU-53" value="1..N" style="text;html=1;strokeColor=none;fillColor=none;align=center;verticalAlign=middle;whiteSpace=wrap;rounded=0;" vertex="1" parent="1">
          <mxGeometry x="185" y="420" width="20" height="30" as="geometry" />
        </mxCell>
        <mxCell id="3VOU5mvbuk7q2b9fPozU-54" value="0..1" style="text;html=1;strokeColor=none;fillColor=none;align=center;verticalAlign=middle;whiteSpace=wrap;rounded=0;" vertex="1" parent="1">
          <mxGeometry x="120" y="520" width="20" height="30" as="geometry" />
        </mxCell>
        <mxCell id="3VOU5mvbuk7q2b9fPozU-55" value="CLIENT (&lt;u&gt;id_Clt, &lt;/u&gt;Nom, Prénom, Date_Naiss, Adresse)" style="text;html=1;strokeColor=none;fillColor=none;align=center;verticalAlign=middle;whiteSpace=wrap;rounded=0;" vertex="1" parent="1">
          <mxGeometry x="247.5" y="690" width="295" height="30" as="geometry" />
        </mxCell>
        <mxCell id="3VOU5mvbuk7q2b9fPozU-56" value="DISQUE (&lt;u&gt;Num_Ref_Dsk,&lt;/u&gt;&amp;nbsp;Titre, Date_Gravure, #id_Clt, #id_Artiste)" style="text;html=1;strokeColor=none;fillColor=none;align=center;verticalAlign=middle;whiteSpace=wrap;rounded=0;" vertex="1" parent="1">
          <mxGeometry x="245" y="720" width="357.5" height="30" as="geometry" />
        </mxCell>
        <mxCell id="3VOU5mvbuk7q2b9fPozU-58" value="RAYON (&lt;u&gt;id_Rayon,&lt;/u&gt;&amp;nbsp;Libellé, Num_Rayon, #Num_Ref_Dsk)" style="text;html=1;strokeColor=none;fillColor=none;align=center;verticalAlign=middle;whiteSpace=wrap;rounded=0;" vertex="1" parent="1">
          <mxGeometry x="247.5" y="760" width="315" height="30" as="geometry" />
        </mxCell>
        <mxCell id="3VOU5mvbuk7q2b9fPozU-59" value="ARTISTE (&lt;u&gt;id_Artiste,&lt;/u&gt;&amp;nbsp;Nom, Prénom, Pyas, Domaine, #Num_Ref_Dsk)" style="text;html=1;strokeColor=none;fillColor=none;align=center;verticalAlign=middle;whiteSpace=wrap;rounded=0;" vertex="1" parent="1">
          <mxGeometry x="247.5" y="800" width="375" height="30" as="geometry" />
        </mxCell>
        <mxCell id="3VOU5mvbuk7q2b9fPozU-124" style="edgeStyle=orthogonalEdgeStyle;rounded=0;orthogonalLoop=1;jettySize=auto;html=1;exitX=0.5;exitY=0;exitDx=0;exitDy=0;entryX=0.5;entryY=0;entryDx=0;entryDy=0;endArrow=none;endFill=0;" edge="1" parent="1" source="3VOU5mvbuk7q2b9fPozU-60" target="3VOU5mvbuk7q2b9fPozU-80">
          <mxGeometry relative="1" as="geometry" />
        </mxCell>
        <mxCell id="3VOU5mvbuk7q2b9fPozU-60" value="Produits" style="swimlane;fontStyle=0;childLayout=stackLayout;horizontal=1;startSize=30;horizontalStack=0;resizeParent=1;resizeParentMax=0;resizeLast=0;collapsible=1;marginBottom=0;whiteSpace=wrap;html=1;" vertex="1" parent="1">
          <mxGeometry x="45" y="940" width="140" height="120" as="geometry" />
        </mxCell>
        <mxCell id="3VOU5mvbuk7q2b9fPozU-61" value="Num" style="text;strokeColor=none;fillColor=none;align=left;verticalAlign=middle;spacingLeft=4;spacingRight=4;overflow=hidden;points=[[0,0.5],[1,0.5]];portConstraint=eastwest;rotatable=0;whiteSpace=wrap;html=1;" vertex="1" parent="3VOU5mvbuk7q2b9fPozU-60">
          <mxGeometry y="30" width="140" height="30" as="geometry" />
        </mxCell>
        <mxCell id="3VOU5mvbuk7q2b9fPozU-62" value="Nom" style="text;strokeColor=none;fillColor=none;align=left;verticalAlign=middle;spacingLeft=4;spacingRight=4;overflow=hidden;points=[[0,0.5],[1,0.5]];portConstraint=eastwest;rotatable=0;whiteSpace=wrap;html=1;" vertex="1" parent="3VOU5mvbuk7q2b9fPozU-60">
          <mxGeometry y="60" width="140" height="30" as="geometry" />
        </mxCell>
        <mxCell id="3VOU5mvbuk7q2b9fPozU-63" value="Catégorie" style="text;strokeColor=none;fillColor=none;align=left;verticalAlign=middle;spacingLeft=4;spacingRight=4;overflow=hidden;points=[[0,0.5],[1,0.5]];portConstraint=eastwest;rotatable=0;whiteSpace=wrap;html=1;" vertex="1" parent="3VOU5mvbuk7q2b9fPozU-60">
          <mxGeometry y="90" width="140" height="30" as="geometry" />
        </mxCell>
        <mxCell id="3VOU5mvbuk7q2b9fPozU-64" value="Récoltes" style="swimlane;fontStyle=0;childLayout=stackLayout;horizontal=1;startSize=30;horizontalStack=0;resizeParent=1;resizeParentMax=0;resizeLast=0;collapsible=1;marginBottom=0;whiteSpace=wrap;html=1;" vertex="1" parent="1">
          <mxGeometry x="365" y="940" width="140" height="120" as="geometry" />
        </mxCell>
        <mxCell id="3VOU5mvbuk7q2b9fPozU-65" value="N°Produits" style="text;strokeColor=none;fillColor=none;align=left;verticalAlign=middle;spacingLeft=4;spacingRight=4;overflow=hidden;points=[[0,0.5],[1,0.5]];portConstraint=eastwest;rotatable=0;whiteSpace=wrap;html=1;" vertex="1" parent="3VOU5mvbuk7q2b9fPozU-64">
          <mxGeometry y="30" width="140" height="30" as="geometry" />
        </mxCell>
        <mxCell id="3VOU5mvbuk7q2b9fPozU-66" value="N°Produc" style="text;strokeColor=none;fillColor=none;align=left;verticalAlign=middle;spacingLeft=4;spacingRight=4;overflow=hidden;points=[[0,0.5],[1,0.5]];portConstraint=eastwest;rotatable=0;whiteSpace=wrap;html=1;" vertex="1" parent="3VOU5mvbuk7q2b9fPozU-64">
          <mxGeometry y="60" width="140" height="30" as="geometry" />
        </mxCell>
        <mxCell id="3VOU5mvbuk7q2b9fPozU-67" value="Quantité" style="text;strokeColor=none;fillColor=none;align=left;verticalAlign=middle;spacingLeft=4;spacingRight=4;overflow=hidden;points=[[0,0.5],[1,0.5]];portConstraint=eastwest;rotatable=0;whiteSpace=wrap;html=1;" vertex="1" parent="3VOU5mvbuk7q2b9fPozU-64">
          <mxGeometry y="90" width="140" height="30" as="geometry" />
        </mxCell>
        <mxCell id="3VOU5mvbuk7q2b9fPozU-68" value="Producteurs" style="swimlane;fontStyle=0;childLayout=stackLayout;horizontal=1;startSize=30;horizontalStack=0;resizeParent=1;resizeParentMax=0;resizeLast=0;collapsible=1;marginBottom=0;whiteSpace=wrap;html=1;" vertex="1" parent="1">
          <mxGeometry x="365" y="1180" width="140" height="150" as="geometry" />
        </mxCell>
        <mxCell id="3VOU5mvbuk7q2b9fPozU-69" value="Num" style="text;strokeColor=none;fillColor=none;align=left;verticalAlign=middle;spacingLeft=4;spacingRight=4;overflow=hidden;points=[[0,0.5],[1,0.5]];portConstraint=eastwest;rotatable=0;whiteSpace=wrap;html=1;" vertex="1" parent="3VOU5mvbuk7q2b9fPozU-68">
          <mxGeometry y="30" width="140" height="30" as="geometry" />
        </mxCell>
        <mxCell id="3VOU5mvbuk7q2b9fPozU-70" value="Nom" style="text;strokeColor=none;fillColor=none;align=left;verticalAlign=middle;spacingLeft=4;spacingRight=4;overflow=hidden;points=[[0,0.5],[1,0.5]];portConstraint=eastwest;rotatable=0;whiteSpace=wrap;html=1;" vertex="1" parent="3VOU5mvbuk7q2b9fPozU-68">
          <mxGeometry y="60" width="140" height="30" as="geometry" />
        </mxCell>
        <mxCell id="3VOU5mvbuk7q2b9fPozU-71" value="Prénom" style="text;strokeColor=none;fillColor=none;align=left;verticalAlign=middle;spacingLeft=4;spacingRight=4;overflow=hidden;points=[[0,0.5],[1,0.5]];portConstraint=eastwest;rotatable=0;whiteSpace=wrap;html=1;" vertex="1" parent="3VOU5mvbuk7q2b9fPozU-68">
          <mxGeometry y="90" width="140" height="30" as="geometry" />
        </mxCell>
        <mxCell id="3VOU5mvbuk7q2b9fPozU-72" value="Région" style="text;strokeColor=none;fillColor=none;align=left;verticalAlign=middle;spacingLeft=4;spacingRight=4;overflow=hidden;points=[[0,0.5],[1,0.5]];portConstraint=eastwest;rotatable=0;whiteSpace=wrap;html=1;" vertex="1" parent="3VOU5mvbuk7q2b9fPozU-68">
          <mxGeometry y="120" width="140" height="30" as="geometry" />
        </mxCell>
        <mxCell id="3VOU5mvbuk7q2b9fPozU-73" value="Clients" style="swimlane;fontStyle=0;childLayout=stackLayout;horizontal=1;startSize=30;horizontalStack=0;resizeParent=1;resizeParentMax=0;resizeLast=0;collapsible=1;marginBottom=0;whiteSpace=wrap;html=1;" vertex="1" parent="1">
          <mxGeometry x="685" y="940" width="140" height="180" as="geometry" />
        </mxCell>
        <mxCell id="3VOU5mvbuk7q2b9fPozU-74" value="Num" style="text;strokeColor=none;fillColor=none;align=left;verticalAlign=middle;spacingLeft=4;spacingRight=4;overflow=hidden;points=[[0,0.5],[1,0.5]];portConstraint=eastwest;rotatable=0;whiteSpace=wrap;html=1;" vertex="1" parent="3VOU5mvbuk7q2b9fPozU-73">
          <mxGeometry y="30" width="140" height="30" as="geometry" />
        </mxCell>
        <mxCell id="3VOU5mvbuk7q2b9fPozU-75" value="Nom" style="text;strokeColor=none;fillColor=none;align=left;verticalAlign=middle;spacingLeft=4;spacingRight=4;overflow=hidden;points=[[0,0.5],[1,0.5]];portConstraint=eastwest;rotatable=0;whiteSpace=wrap;html=1;" vertex="1" parent="3VOU5mvbuk7q2b9fPozU-73">
          <mxGeometry y="60" width="140" height="30" as="geometry" />
        </mxCell>
        <mxCell id="3VOU5mvbuk7q2b9fPozU-76" value="Prénom" style="text;strokeColor=none;fillColor=none;align=left;verticalAlign=middle;spacingLeft=4;spacingRight=4;overflow=hidden;points=[[0,0.5],[1,0.5]];portConstraint=eastwest;rotatable=0;whiteSpace=wrap;html=1;" vertex="1" parent="3VOU5mvbuk7q2b9fPozU-73">
          <mxGeometry y="90" width="140" height="30" as="geometry" />
        </mxCell>
        <mxCell id="3VOU5mvbuk7q2b9fPozU-78" value="Téléphone" style="text;strokeColor=none;fillColor=none;align=left;verticalAlign=middle;spacingLeft=4;spacingRight=4;overflow=hidden;points=[[0,0.5],[1,0.5]];portConstraint=eastwest;rotatable=0;whiteSpace=wrap;html=1;" vertex="1" parent="3VOU5mvbuk7q2b9fPozU-73">
          <mxGeometry y="120" width="140" height="30" as="geometry" />
        </mxCell>
        <mxCell id="3VOU5mvbuk7q2b9fPozU-77" value="Ville" style="text;strokeColor=none;fillColor=none;align=left;verticalAlign=middle;spacingLeft=4;spacingRight=4;overflow=hidden;points=[[0,0.5],[1,0.5]];portConstraint=eastwest;rotatable=0;whiteSpace=wrap;html=1;" vertex="1" parent="3VOU5mvbuk7q2b9fPozU-73">
          <mxGeometry y="150" width="140" height="30" as="geometry" />
        </mxCell>
        <mxCell id="3VOU5mvbuk7q2b9fPozU-80" value="Commandes" style="swimlane;fontStyle=0;childLayout=stackLayout;horizontal=1;startSize=30;horizontalStack=0;resizeParent=1;resizeParentMax=0;resizeLast=0;collapsible=1;marginBottom=0;whiteSpace=wrap;html=1;" vertex="1" parent="1">
          <mxGeometry x="1005" y="940" width="140" height="180" as="geometry" />
        </mxCell>
        <mxCell id="3VOU5mvbuk7q2b9fPozU-81" value="N°Cde" style="text;strokeColor=none;fillColor=none;align=left;verticalAlign=middle;spacingLeft=4;spacingRight=4;overflow=hidden;points=[[0,0.5],[1,0.5]];portConstraint=eastwest;rotatable=0;whiteSpace=wrap;html=1;" vertex="1" parent="3VOU5mvbuk7q2b9fPozU-80">
          <mxGeometry y="30" width="140" height="30" as="geometry" />
        </mxCell>
        <mxCell id="3VOU5mvbuk7q2b9fPozU-82" value="Date" style="text;strokeColor=none;fillColor=none;align=left;verticalAlign=middle;spacingLeft=4;spacingRight=4;overflow=hidden;points=[[0,0.5],[1,0.5]];portConstraint=eastwest;rotatable=0;whiteSpace=wrap;html=1;" vertex="1" parent="3VOU5mvbuk7q2b9fPozU-80">
          <mxGeometry y="60" width="140" height="30" as="geometry" />
        </mxCell>
        <mxCell id="3VOU5mvbuk7q2b9fPozU-83" value="#N°Clt" style="text;strokeColor=none;fillColor=none;align=left;verticalAlign=middle;spacingLeft=4;spacingRight=4;overflow=hidden;points=[[0,0.5],[1,0.5]];portConstraint=eastwest;rotatable=0;whiteSpace=wrap;html=1;" vertex="1" parent="3VOU5mvbuk7q2b9fPozU-80">
          <mxGeometry y="90" width="140" height="30" as="geometry" />
        </mxCell>
        <mxCell id="3VOU5mvbuk7q2b9fPozU-84" value="#N°Produit" style="text;strokeColor=none;fillColor=none;align=left;verticalAlign=middle;spacingLeft=4;spacingRight=4;overflow=hidden;points=[[0,0.5],[1,0.5]];portConstraint=eastwest;rotatable=0;whiteSpace=wrap;html=1;" vertex="1" parent="3VOU5mvbuk7q2b9fPozU-80">
          <mxGeometry y="120" width="140" height="30" as="geometry" />
        </mxCell>
        <mxCell id="3VOU5mvbuk7q2b9fPozU-85" value="Quantité" style="text;strokeColor=none;fillColor=none;align=left;verticalAlign=middle;spacingLeft=4;spacingRight=4;overflow=hidden;points=[[0,0.5],[1,0.5]];portConstraint=eastwest;rotatable=0;whiteSpace=wrap;html=1;" vertex="1" parent="3VOU5mvbuk7q2b9fPozU-80">
          <mxGeometry y="150" width="140" height="30" as="geometry" />
        </mxCell>
        <mxCell id="3VOU5mvbuk7q2b9fPozU-86" value="Livraisons" style="swimlane;fontStyle=0;childLayout=stackLayout;horizontal=1;startSize=30;horizontalStack=0;resizeParent=1;resizeParentMax=0;resizeLast=0;collapsible=1;marginBottom=0;whiteSpace=wrap;html=1;" vertex="1" parent="1">
          <mxGeometry x="685" y="1186" width="140" height="150" as="geometry" />
        </mxCell>
        <mxCell id="3VOU5mvbuk7q2b9fPozU-87" value="N°Ordre" style="text;strokeColor=none;fillColor=none;align=left;verticalAlign=middle;spacingLeft=4;spacingRight=4;overflow=hidden;points=[[0,0.5],[1,0.5]];portConstraint=eastwest;rotatable=0;whiteSpace=wrap;html=1;" vertex="1" parent="3VOU5mvbuk7q2b9fPozU-86">
          <mxGeometry y="30" width="140" height="30" as="geometry" />
        </mxCell>
        <mxCell id="3VOU5mvbuk7q2b9fPozU-88" value="Date" style="text;strokeColor=none;fillColor=none;align=left;verticalAlign=middle;spacingLeft=4;spacingRight=4;overflow=hidden;points=[[0,0.5],[1,0.5]];portConstraint=eastwest;rotatable=0;whiteSpace=wrap;html=1;" vertex="1" parent="3VOU5mvbuk7q2b9fPozU-86">
          <mxGeometry y="60" width="140" height="30" as="geometry" />
        </mxCell>
        <mxCell id="3VOU5mvbuk7q2b9fPozU-89" value="#N°Cde" style="text;strokeColor=none;fillColor=none;align=left;verticalAlign=middle;spacingLeft=4;spacingRight=4;overflow=hidden;points=[[0,0.5],[1,0.5]];portConstraint=eastwest;rotatable=0;whiteSpace=wrap;html=1;" vertex="1" parent="3VOU5mvbuk7q2b9fPozU-86">
          <mxGeometry y="90" width="140" height="30" as="geometry" />
        </mxCell>
        <mxCell id="3VOU5mvbuk7q2b9fPozU-91" value="QteLivrée" style="text;strokeColor=none;fillColor=none;align=left;verticalAlign=middle;spacingLeft=4;spacingRight=4;overflow=hidden;points=[[0,0.5],[1,0.5]];portConstraint=eastwest;rotatable=0;whiteSpace=wrap;html=1;" vertex="1" parent="3VOU5mvbuk7q2b9fPozU-86">
          <mxGeometry y="120" width="140" height="30" as="geometry" />
        </mxCell>
        <mxCell id="3VOU5mvbuk7q2b9fPozU-120" style="edgeStyle=orthogonalEdgeStyle;rounded=0;orthogonalLoop=1;jettySize=auto;html=1;exitX=0;exitY=0.5;exitDx=0;exitDy=0;entryX=0.98;entryY=-0.04;entryDx=0;entryDy=0;entryPerimeter=0;endArrow=none;endFill=0;" edge="1" parent="1" source="3VOU5mvbuk7q2b9fPozU-93" target="3VOU5mvbuk7q2b9fPozU-62">
          <mxGeometry relative="1" as="geometry" />
        </mxCell>
        <mxCell id="3VOU5mvbuk7q2b9fPozU-121" style="edgeStyle=orthogonalEdgeStyle;rounded=0;orthogonalLoop=1;jettySize=auto;html=1;exitX=1;exitY=0.5;exitDx=0;exitDy=0;entryX=0.054;entryY=0.013;entryDx=0;entryDy=0;entryPerimeter=0;endArrow=none;endFill=0;" edge="1" parent="1" source="3VOU5mvbuk7q2b9fPozU-93" target="3VOU5mvbuk7q2b9fPozU-66">
          <mxGeometry relative="1" as="geometry" />
        </mxCell>
        <mxCell id="3VOU5mvbuk7q2b9fPozU-93" value="" style="rounded=1;whiteSpace=wrap;html=1;" vertex="1" parent="1">
          <mxGeometry x="215" y="970" width="120" height="60" as="geometry" />
        </mxCell>
        <mxCell id="3VOU5mvbuk7q2b9fPozU-94" value="Sont produits" style="text;html=1;strokeColor=none;fillColor=none;align=center;verticalAlign=middle;whiteSpace=wrap;rounded=0;" vertex="1" parent="1">
          <mxGeometry x="236.25" y="970" width="77.5" height="30" as="geometry" />
        </mxCell>
        <mxCell id="3VOU5mvbuk7q2b9fPozU-95" value="" style="endArrow=none;html=1;rounded=0;exitX=0;exitY=0.5;exitDx=0;exitDy=0;entryX=1;entryY=0.5;entryDx=0;entryDy=0;" edge="1" parent="1" source="3VOU5mvbuk7q2b9fPozU-93" target="3VOU5mvbuk7q2b9fPozU-93">
          <mxGeometry width="50" height="50" relative="1" as="geometry">
            <mxPoint x="525" y="1110" as="sourcePoint" />
            <mxPoint x="575" y="1060" as="targetPoint" />
            <Array as="points">
              <mxPoint x="335" y="1000" />
            </Array>
          </mxGeometry>
        </mxCell>
        <mxCell id="3VOU5mvbuk7q2b9fPozU-123" style="edgeStyle=orthogonalEdgeStyle;rounded=0;orthogonalLoop=1;jettySize=auto;html=1;exitX=0.5;exitY=1;exitDx=0;exitDy=0;entryX=0.5;entryY=0;entryDx=0;entryDy=0;endArrow=none;endFill=0;" edge="1" parent="1" source="3VOU5mvbuk7q2b9fPozU-96" target="3VOU5mvbuk7q2b9fPozU-68">
          <mxGeometry relative="1" as="geometry" />
        </mxCell>
        <mxCell id="3VOU5mvbuk7q2b9fPozU-96" value="" style="rounded=1;whiteSpace=wrap;html=1;" vertex="1" parent="1">
          <mxGeometry x="375" y="1090" width="120" height="60" as="geometry" />
        </mxCell>
        <mxCell id="3VOU5mvbuk7q2b9fPozU-122" style="edgeStyle=orthogonalEdgeStyle;rounded=0;orthogonalLoop=1;jettySize=auto;html=1;exitX=0.5;exitY=0;exitDx=0;exitDy=0;entryX=0.5;entryY=1;entryDx=0;entryDy=0;entryPerimeter=0;endArrow=none;endFill=0;" edge="1" parent="1" source="3VOU5mvbuk7q2b9fPozU-97" target="3VOU5mvbuk7q2b9fPozU-67">
          <mxGeometry relative="1" as="geometry" />
        </mxCell>
        <mxCell id="3VOU5mvbuk7q2b9fPozU-97" value="Sont récoltés" style="text;html=1;strokeColor=none;fillColor=none;align=center;verticalAlign=middle;whiteSpace=wrap;rounded=0;" vertex="1" parent="1">
          <mxGeometry x="396.25" y="1090" width="77.5" height="30" as="geometry" />
        </mxCell>
        <mxCell id="3VOU5mvbuk7q2b9fPozU-98" value="" style="endArrow=none;html=1;rounded=0;exitX=0;exitY=0.5;exitDx=0;exitDy=0;entryX=1;entryY=0.5;entryDx=0;entryDy=0;" edge="1" parent="1" source="3VOU5mvbuk7q2b9fPozU-96" target="3VOU5mvbuk7q2b9fPozU-96">
          <mxGeometry width="50" height="50" relative="1" as="geometry">
            <mxPoint x="685" y="1230" as="sourcePoint" />
            <mxPoint x="735" y="1180" as="targetPoint" />
            <Array as="points">
              <mxPoint x="495" y="1120" />
            </Array>
          </mxGeometry>
        </mxCell>
        <mxCell id="3VOU5mvbuk7q2b9fPozU-118" style="edgeStyle=orthogonalEdgeStyle;rounded=0;orthogonalLoop=1;jettySize=auto;html=1;exitX=0;exitY=0.75;exitDx=0;exitDy=0;entryX=0.986;entryY=0.027;entryDx=0;entryDy=0;entryPerimeter=0;endArrow=none;endFill=0;" edge="1" parent="1" source="3VOU5mvbuk7q2b9fPozU-109" target="3VOU5mvbuk7q2b9fPozU-76">
          <mxGeometry relative="1" as="geometry" />
        </mxCell>
        <mxCell id="3VOU5mvbuk7q2b9fPozU-119" style="edgeStyle=orthogonalEdgeStyle;rounded=0;orthogonalLoop=1;jettySize=auto;html=1;exitX=1;exitY=0.75;exitDx=0;exitDy=0;entryX=0.031;entryY=-0.133;entryDx=0;entryDy=0;entryPerimeter=0;endArrow=none;endFill=0;" edge="1" parent="1" source="3VOU5mvbuk7q2b9fPozU-109" target="3VOU5mvbuk7q2b9fPozU-83">
          <mxGeometry relative="1" as="geometry" />
        </mxCell>
        <mxCell id="3VOU5mvbuk7q2b9fPozU-109" value="" style="rounded=1;whiteSpace=wrap;html=1;" vertex="1" parent="1">
          <mxGeometry x="855" y="990" width="120" height="60" as="geometry" />
        </mxCell>
        <mxCell id="3VOU5mvbuk7q2b9fPozU-110" value="Sont récoltés" style="text;html=1;strokeColor=none;fillColor=none;align=center;verticalAlign=middle;whiteSpace=wrap;rounded=0;" vertex="1" parent="1">
          <mxGeometry x="876.25" y="990" width="77.5" height="30" as="geometry" />
        </mxCell>
        <mxCell id="3VOU5mvbuk7q2b9fPozU-111" value="" style="endArrow=none;html=1;rounded=0;exitX=0;exitY=0.5;exitDx=0;exitDy=0;entryX=1;entryY=0.5;entryDx=0;entryDy=0;" edge="1" parent="1" source="3VOU5mvbuk7q2b9fPozU-109" target="3VOU5mvbuk7q2b9fPozU-109">
          <mxGeometry width="50" height="50" relative="1" as="geometry">
            <mxPoint x="1165" y="1130" as="sourcePoint" />
            <mxPoint x="1215" y="1080" as="targetPoint" />
            <Array as="points">
              <mxPoint x="975" y="1020" />
            </Array>
          </mxGeometry>
        </mxCell>
        <mxCell id="3VOU5mvbuk7q2b9fPozU-116" style="edgeStyle=orthogonalEdgeStyle;rounded=0;orthogonalLoop=1;jettySize=auto;html=1;exitX=0.5;exitY=1;exitDx=0;exitDy=0;entryX=1.02;entryY=0.853;entryDx=0;entryDy=0;entryPerimeter=0;endArrow=none;endFill=0;" edge="1" parent="1" source="3VOU5mvbuk7q2b9fPozU-113" target="3VOU5mvbuk7q2b9fPozU-88">
          <mxGeometry relative="1" as="geometry" />
        </mxCell>
        <mxCell id="3VOU5mvbuk7q2b9fPozU-113" value="" style="rounded=1;whiteSpace=wrap;html=1;" vertex="1" parent="1">
          <mxGeometry x="1015" y="1160" width="120" height="60" as="geometry" />
        </mxCell>
        <mxCell id="3VOU5mvbuk7q2b9fPozU-117" style="edgeStyle=orthogonalEdgeStyle;rounded=0;orthogonalLoop=1;jettySize=auto;html=1;exitX=0.5;exitY=0;exitDx=0;exitDy=0;entryX=0.489;entryY=1.093;entryDx=0;entryDy=0;entryPerimeter=0;endArrow=none;endFill=0;" edge="1" parent="1" source="3VOU5mvbuk7q2b9fPozU-114" target="3VOU5mvbuk7q2b9fPozU-85">
          <mxGeometry relative="1" as="geometry" />
        </mxCell>
        <mxCell id="3VOU5mvbuk7q2b9fPozU-114" value="Sont récoltés" style="text;html=1;strokeColor=none;fillColor=none;align=center;verticalAlign=middle;whiteSpace=wrap;rounded=0;" vertex="1" parent="1">
          <mxGeometry x="1036.25" y="1160" width="77.5" height="30" as="geometry" />
        </mxCell>
        <mxCell id="3VOU5mvbuk7q2b9fPozU-115" value="" style="endArrow=none;html=1;rounded=0;exitX=0;exitY=0.5;exitDx=0;exitDy=0;entryX=1;entryY=0.5;entryDx=0;entryDy=0;" edge="1" parent="1" source="3VOU5mvbuk7q2b9fPozU-113" target="3VOU5mvbuk7q2b9fPozU-113">
          <mxGeometry width="50" height="50" relative="1" as="geometry">
            <mxPoint x="1325" y="1300" as="sourcePoint" />
            <mxPoint x="1375" y="1250" as="targetPoint" />
            <Array as="points">
              <mxPoint x="1135" y="1190" />
            </Array>
          </mxGeometry>
        </mxCell>
        <mxCell id="3VOU5mvbuk7q2b9fPozU-125" value="Membre" style="swimlane;fontStyle=0;childLayout=stackLayout;horizontal=1;startSize=30;horizontalStack=0;resizeParent=1;resizeParentMax=0;resizeLast=0;collapsible=1;marginBottom=0;whiteSpace=wrap;html=1;" vertex="1" parent="1">
          <mxGeometry x="275" y="1440" width="140" height="210" as="geometry" />
        </mxCell>
        <mxCell id="3VOU5mvbuk7q2b9fPozU-126" value="Pk_Primary" style="text;strokeColor=none;fillColor=none;align=left;verticalAlign=middle;spacingLeft=4;spacingRight=4;overflow=hidden;points=[[0,0.5],[1,0.5]];portConstraint=eastwest;rotatable=0;whiteSpace=wrap;html=1;" vertex="1" parent="3VOU5mvbuk7q2b9fPozU-125">
          <mxGeometry y="30" width="140" height="30" as="geometry" />
        </mxCell>
        <mxCell id="3VOU5mvbuk7q2b9fPozU-127" value="id Auto_Increment" style="text;strokeColor=none;fillColor=none;align=center;verticalAlign=middle;spacingLeft=4;spacingRight=4;overflow=hidden;points=[[0,0.5],[1,0.5]];portConstraint=eastwest;rotatable=0;whiteSpace=wrap;html=1;" vertex="1" parent="3VOU5mvbuk7q2b9fPozU-125">
          <mxGeometry y="60" width="140" height="30" as="geometry" />
        </mxCell>
        <mxCell id="3VOU5mvbuk7q2b9fPozU-128" value="Attributs" style="text;strokeColor=none;fillColor=none;align=left;verticalAlign=middle;spacingLeft=4;spacingRight=4;overflow=hidden;points=[[0,0.5],[1,0.5]];portConstraint=eastwest;rotatable=0;whiteSpace=wrap;html=1;" vertex="1" parent="3VOU5mvbuk7q2b9fPozU-125">
          <mxGeometry y="90" width="140" height="30" as="geometry" />
        </mxCell>
        <mxCell id="3VOU5mvbuk7q2b9fPozU-131" value="Nom VARCHAR (255)" style="text;strokeColor=none;fillColor=none;align=center;verticalAlign=middle;spacingLeft=4;spacingRight=4;overflow=hidden;points=[[0,0.5],[1,0.5]];portConstraint=eastwest;rotatable=0;whiteSpace=wrap;html=1;" vertex="1" parent="3VOU5mvbuk7q2b9fPozU-125">
          <mxGeometry y="120" width="140" height="30" as="geometry" />
        </mxCell>
        <mxCell id="3VOU5mvbuk7q2b9fPozU-130" value="Class VARCHAR (255)" style="text;strokeColor=none;fillColor=none;align=center;verticalAlign=middle;spacingLeft=4;spacingRight=4;overflow=hidden;points=[[0,0.5],[1,0.5]];portConstraint=eastwest;rotatable=0;whiteSpace=wrap;html=1;" vertex="1" parent="3VOU5mvbuk7q2b9fPozU-125">
          <mxGeometry y="150" width="140" height="30" as="geometry" />
        </mxCell>
        <mxCell id="3VOU5mvbuk7q2b9fPozU-129" value="Age INT (11)" style="text;strokeColor=none;fillColor=none;align=center;verticalAlign=middle;spacingLeft=4;spacingRight=4;overflow=hidden;points=[[0,0.5],[1,0.5]];portConstraint=eastwest;rotatable=0;whiteSpace=wrap;html=1;" vertex="1" parent="3VOU5mvbuk7q2b9fPozU-125">
          <mxGeometry y="180" width="140" height="30" as="geometry" />
        </mxCell>
        <mxCell id="3VOU5mvbuk7q2b9fPozU-132" value="Guilde" style="swimlane;fontStyle=0;childLayout=stackLayout;horizontal=1;startSize=30;horizontalStack=0;resizeParent=1;resizeParentMax=0;resizeLast=0;collapsible=1;marginBottom=0;whiteSpace=wrap;html=1;" vertex="1" parent="1">
          <mxGeometry x="37.5" y="1440" width="140" height="210" as="geometry" />
        </mxCell>
        <mxCell id="3VOU5mvbuk7q2b9fPozU-133" value="Pk_Primary" style="text;strokeColor=none;fillColor=none;align=left;verticalAlign=middle;spacingLeft=4;spacingRight=4;overflow=hidden;points=[[0,0.5],[1,0.5]];portConstraint=eastwest;rotatable=0;whiteSpace=wrap;html=1;" vertex="1" parent="3VOU5mvbuk7q2b9fPozU-132">
          <mxGeometry y="30" width="140" height="30" as="geometry" />
        </mxCell>
        <mxCell id="3VOU5mvbuk7q2b9fPozU-134" value="id Auto_Increment" style="text;strokeColor=none;fillColor=none;align=center;verticalAlign=middle;spacingLeft=4;spacingRight=4;overflow=hidden;points=[[0,0.5],[1,0.5]];portConstraint=eastwest;rotatable=0;whiteSpace=wrap;html=1;" vertex="1" parent="3VOU5mvbuk7q2b9fPozU-132">
          <mxGeometry y="60" width="140" height="30" as="geometry" />
        </mxCell>
        <mxCell id="3VOU5mvbuk7q2b9fPozU-135" value="Attributs" style="text;strokeColor=none;fillColor=none;align=left;verticalAlign=middle;spacingLeft=4;spacingRight=4;overflow=hidden;points=[[0,0.5],[1,0.5]];portConstraint=eastwest;rotatable=0;whiteSpace=wrap;html=1;" vertex="1" parent="3VOU5mvbuk7q2b9fPozU-132">
          <mxGeometry y="90" width="140" height="30" as="geometry" />
        </mxCell>
        <mxCell id="3VOU5mvbuk7q2b9fPozU-136" value="Nom VARCHAR (255)" style="text;strokeColor=none;fillColor=none;align=center;verticalAlign=middle;spacingLeft=4;spacingRight=4;overflow=hidden;points=[[0,0.5],[1,0.5]];portConstraint=eastwest;rotatable=0;whiteSpace=wrap;html=1;" vertex="1" parent="3VOU5mvbuk7q2b9fPozU-132">
          <mxGeometry y="120" width="140" height="30" as="geometry" />
        </mxCell>
        <mxCell id="3VOU5mvbuk7q2b9fPozU-137" value="Fk_Foreign" style="text;strokeColor=none;fillColor=none;align=left;verticalAlign=middle;spacingLeft=4;spacingRight=4;overflow=hidden;points=[[0,0.5],[1,0.5]];portConstraint=eastwest;rotatable=0;whiteSpace=wrap;html=1;" vertex="1" parent="3VOU5mvbuk7q2b9fPozU-132">
          <mxGeometry y="150" width="140" height="30" as="geometry" />
        </mxCell>
        <mxCell id="3VOU5mvbuk7q2b9fPozU-139" value="id_Membre INT (11)" style="text;strokeColor=none;fillColor=none;align=center;verticalAlign=middle;spacingLeft=4;spacingRight=4;overflow=hidden;points=[[0,0.5],[1,0.5]];portConstraint=eastwest;rotatable=0;whiteSpace=wrap;html=1;" vertex="1" parent="3VOU5mvbuk7q2b9fPozU-132">
          <mxGeometry y="180" width="140" height="30" as="geometry" />
        </mxCell>
        <mxCell id="3VOU5mvbuk7q2b9fPozU-140" value="Donjon" style="swimlane;fontStyle=0;childLayout=stackLayout;horizontal=1;startSize=30;horizontalStack=0;resizeParent=1;resizeParentMax=0;resizeLast=0;collapsible=1;marginBottom=0;whiteSpace=wrap;html=1;" vertex="1" parent="1">
          <mxGeometry x="275" y="1690" width="140" height="150" as="geometry" />
        </mxCell>
        <mxCell id="3VOU5mvbuk7q2b9fPozU-141" value="Pk_Primary" style="text;strokeColor=none;fillColor=none;align=left;verticalAlign=middle;spacingLeft=4;spacingRight=4;overflow=hidden;points=[[0,0.5],[1,0.5]];portConstraint=eastwest;rotatable=0;whiteSpace=wrap;html=1;" vertex="1" parent="3VOU5mvbuk7q2b9fPozU-140">
          <mxGeometry y="30" width="140" height="30" as="geometry" />
        </mxCell>
        <mxCell id="3VOU5mvbuk7q2b9fPozU-142" value="id Auto_Increment" style="text;strokeColor=none;fillColor=none;align=center;verticalAlign=middle;spacingLeft=4;spacingRight=4;overflow=hidden;points=[[0,0.5],[1,0.5]];portConstraint=eastwest;rotatable=0;whiteSpace=wrap;html=1;" vertex="1" parent="3VOU5mvbuk7q2b9fPozU-140">
          <mxGeometry y="60" width="140" height="30" as="geometry" />
        </mxCell>
        <mxCell id="3VOU5mvbuk7q2b9fPozU-143" value="Attributs" style="text;strokeColor=none;fillColor=none;align=left;verticalAlign=middle;spacingLeft=4;spacingRight=4;overflow=hidden;points=[[0,0.5],[1,0.5]];portConstraint=eastwest;rotatable=0;whiteSpace=wrap;html=1;" vertex="1" parent="3VOU5mvbuk7q2b9fPozU-140">
          <mxGeometry y="90" width="140" height="30" as="geometry" />
        </mxCell>
        <mxCell id="3VOU5mvbuk7q2b9fPozU-144" value="Nom VARCHAR (255)" style="text;strokeColor=none;fillColor=none;align=center;verticalAlign=middle;spacingLeft=4;spacingRight=4;overflow=hidden;points=[[0,0.5],[1,0.5]];portConstraint=eastwest;rotatable=0;whiteSpace=wrap;html=1;" vertex="1" parent="3VOU5mvbuk7q2b9fPozU-140">
          <mxGeometry y="120" width="140" height="30" as="geometry" />
        </mxCell>
        <mxCell id="3VOU5mvbuk7q2b9fPozU-147" value="Historique" style="swimlane;fontStyle=0;childLayout=stackLayout;horizontal=1;startSize=30;horizontalStack=0;resizeParent=1;resizeParentMax=0;resizeLast=0;collapsible=1;marginBottom=0;whiteSpace=wrap;html=1;" vertex="1" parent="1">
          <mxGeometry x="615" y="1440" width="140" height="270" as="geometry" />
        </mxCell>
        <mxCell id="3VOU5mvbuk7q2b9fPozU-148" value="Pk_Primary" style="text;strokeColor=none;fillColor=none;align=left;verticalAlign=middle;spacingLeft=4;spacingRight=4;overflow=hidden;points=[[0,0.5],[1,0.5]];portConstraint=eastwest;rotatable=0;whiteSpace=wrap;html=1;" vertex="1" parent="3VOU5mvbuk7q2b9fPozU-147">
          <mxGeometry y="30" width="140" height="30" as="geometry" />
        </mxCell>
        <mxCell id="3VOU5mvbuk7q2b9fPozU-149" value="id Auto_Increment" style="text;strokeColor=none;fillColor=none;align=center;verticalAlign=middle;spacingLeft=4;spacingRight=4;overflow=hidden;points=[[0,0.5],[1,0.5]];portConstraint=eastwest;rotatable=0;whiteSpace=wrap;html=1;" vertex="1" parent="3VOU5mvbuk7q2b9fPozU-147">
          <mxGeometry y="60" width="140" height="30" as="geometry" />
        </mxCell>
        <mxCell id="3VOU5mvbuk7q2b9fPozU-156" value="Attributs" style="text;strokeColor=none;fillColor=none;align=left;verticalAlign=middle;spacingLeft=4;spacingRight=4;overflow=hidden;points=[[0,0.5],[1,0.5]];portConstraint=eastwest;rotatable=0;whiteSpace=wrap;html=1;" vertex="1" parent="3VOU5mvbuk7q2b9fPozU-147">
          <mxGeometry y="90" width="140" height="30" as="geometry" />
        </mxCell>
        <mxCell id="3VOU5mvbuk7q2b9fPozU-157" value="Date DATE" style="text;strokeColor=none;fillColor=none;align=center;verticalAlign=middle;spacingLeft=4;spacingRight=4;overflow=hidden;points=[[0,0.5],[1,0.5]];portConstraint=eastwest;rotatable=0;whiteSpace=wrap;html=1;" vertex="1" parent="3VOU5mvbuk7q2b9fPozU-147">
          <mxGeometry y="120" width="140" height="30" as="geometry" />
        </mxCell>
        <mxCell id="3VOU5mvbuk7q2b9fPozU-163" value="Statut BOOLEEN" style="text;strokeColor=none;fillColor=none;align=center;verticalAlign=middle;spacingLeft=4;spacingRight=4;overflow=hidden;points=[[0,0.5],[1,0.5]];portConstraint=eastwest;rotatable=0;whiteSpace=wrap;html=1;" vertex="1" parent="3VOU5mvbuk7q2b9fPozU-147">
          <mxGeometry y="150" width="140" height="30" as="geometry" />
        </mxCell>
        <mxCell id="3VOU5mvbuk7q2b9fPozU-150" value="Fk_Foreign" style="text;strokeColor=none;fillColor=none;align=left;verticalAlign=middle;spacingLeft=4;spacingRight=4;overflow=hidden;points=[[0,0.5],[1,0.5]];portConstraint=eastwest;rotatable=0;whiteSpace=wrap;html=1;" vertex="1" parent="3VOU5mvbuk7q2b9fPozU-147">
          <mxGeometry y="180" width="140" height="30" as="geometry" />
        </mxCell>
        <mxCell id="3VOU5mvbuk7q2b9fPozU-155" value="id_Donjon INT (11)" style="text;strokeColor=none;fillColor=none;align=center;verticalAlign=middle;spacingLeft=4;spacingRight=4;overflow=hidden;points=[[0,0.5],[1,0.5]];portConstraint=eastwest;rotatable=0;whiteSpace=wrap;html=1;" vertex="1" parent="3VOU5mvbuk7q2b9fPozU-147">
          <mxGeometry y="210" width="140" height="30" as="geometry" />
        </mxCell>
        <mxCell id="3VOU5mvbuk7q2b9fPozU-151" value="id_Membre INT (11)" style="text;strokeColor=none;fillColor=none;align=center;verticalAlign=middle;spacingLeft=4;spacingRight=4;overflow=hidden;points=[[0,0.5],[1,0.5]];portConstraint=eastwest;rotatable=0;whiteSpace=wrap;html=1;" vertex="1" parent="3VOU5mvbuk7q2b9fPozU-147">
          <mxGeometry y="240" width="140" height="30" as="geometry" />
        </mxCell>
        <mxCell id="3VOU5mvbuk7q2b9fPozU-152" style="edgeStyle=orthogonalEdgeStyle;rounded=0;orthogonalLoop=1;jettySize=auto;html=1;exitX=1;exitY=0.5;exitDx=0;exitDy=0;endArrow=none;endFill=0;" edge="1" parent="1" source="3VOU5mvbuk7q2b9fPozU-128" target="3VOU5mvbuk7q2b9fPozU-150">
          <mxGeometry relative="1" as="geometry">
            <Array as="points">
              <mxPoint x="455" y="1545" />
              <mxPoint x="455" y="1635" />
            </Array>
          </mxGeometry>
        </mxCell>
        <mxCell id="3VOU5mvbuk7q2b9fPozU-154" style="edgeStyle=orthogonalEdgeStyle;rounded=0;orthogonalLoop=1;jettySize=auto;html=1;exitX=1;exitY=0.5;exitDx=0;exitDy=0;entryX=-0.007;entryY=0.187;entryDx=0;entryDy=0;entryPerimeter=0;endArrow=none;endFill=0;" edge="1" parent="1" source="3VOU5mvbuk7q2b9fPozU-135" target="3VOU5mvbuk7q2b9fPozU-131">
          <mxGeometry relative="1" as="geometry" />
        </mxCell>
        <mxCell id="3VOU5mvbuk7q2b9fPozU-159" style="edgeStyle=orthogonalEdgeStyle;rounded=0;orthogonalLoop=1;jettySize=auto;html=1;exitX=1;exitY=0.5;exitDx=0;exitDy=0;entryX=1;entryY=0.5;entryDx=0;entryDy=0;endArrow=none;endFill=0;" edge="1" parent="1" source="3VOU5mvbuk7q2b9fPozU-142" target="3VOU5mvbuk7q2b9fPozU-156">
          <mxGeometry relative="1" as="geometry">
            <Array as="points">
              <mxPoint x="895" y="1765" />
              <mxPoint x="895" y="1545" />
            </Array>
          </mxGeometry>
        </mxCell>
        <mxCell id="3VOU5mvbuk7q2b9fPozU-160" value="possede" style="text;html=1;strokeColor=none;fillColor=none;align=center;verticalAlign=middle;whiteSpace=wrap;rounded=0;" vertex="1" parent="1">
          <mxGeometry x="195" y="1510" width="60" height="30" as="geometry" />
        </mxCell>
        <mxCell id="3VOU5mvbuk7q2b9fPozU-161" value="0..N" style="text;html=1;strokeColor=none;fillColor=none;align=center;verticalAlign=middle;whiteSpace=wrap;rounded=0;" vertex="1" parent="1">
          <mxGeometry x="182.5" y="1490" width="30" height="30" as="geometry" />
        </mxCell>
        <mxCell id="3VOU5mvbuk7q2b9fPozU-162" value="1" style="text;html=1;strokeColor=none;fillColor=none;align=center;verticalAlign=middle;whiteSpace=wrap;rounded=0;" vertex="1" parent="1">
          <mxGeometry x="255" y="1538" width="20" height="30" as="geometry" />
        </mxCell>
        <mxCell id="3VOU5mvbuk7q2b9fPozU-164" value="&lt;font size=&quot;1&quot; style=&quot;&quot;&gt;&lt;b style=&quot;font-size: 36px;&quot;&gt;Project Zomboid&lt;/b&gt;&lt;/font&gt;" style="text;html=1;align=center;verticalAlign=middle;whiteSpace=wrap;rounded=0;fillColor=#f5f5f5;fontColor=#333333;strokeColor=#666666;" vertex="1" parent="1">
          <mxGeometry x="40" y="1880" width="327.5" height="30" as="geometry" />
        </mxCell>
        <mxCell id="3VOU5mvbuk7q2b9fPozU-165" value="&lt;font size=&quot;1&quot; style=&quot;&quot;&gt;&lt;b style=&quot;font-size: 36px;&quot;&gt;Project Zomboid&lt;/b&gt;&lt;/font&gt;" style="text;html=1;align=center;verticalAlign=middle;whiteSpace=wrap;rounded=0;fontColor=#424242;" vertex="1" parent="1">
          <mxGeometry x="63.25" y="1880" width="290" height="30" as="geometry" />
        </mxCell>
        <mxCell id="3VOU5mvbuk7q2b9fPozU-166" value="&lt;font size=&quot;1&quot; style=&quot;&quot;&gt;&lt;b style=&quot;font-size: 36px;&quot;&gt;Project Zomboid&lt;/b&gt;&lt;/font&gt;" style="text;html=1;align=center;verticalAlign=middle;whiteSpace=wrap;rounded=0;fontColor=#7D7D7D;" vertex="1" parent="1">
          <mxGeometry x="63.25" y="1880" width="290" height="30" as="geometry" />
        </mxCell>
        <mxCell id="3VOU5mvbuk7q2b9fPozU-168" value="Player" style="swimlane;fontStyle=0;childLayout=stackLayout;horizontal=1;startSize=30;horizontalStack=0;resizeParent=1;resizeParentMax=0;resizeLast=0;collapsible=1;marginBottom=0;whiteSpace=wrap;html=1;" vertex="1" parent="1">
          <mxGeometry x="51.25" y="1930" width="180" height="300" as="geometry" />
        </mxCell>
        <mxCell id="3VOU5mvbuk7q2b9fPozU-169" value="id [ PK ] [ INT 11 ]" style="text;strokeColor=none;fillColor=none;align=left;verticalAlign=middle;spacingLeft=4;spacingRight=4;overflow=hidden;points=[[0,0.5],[1,0.5]];portConstraint=eastwest;rotatable=0;whiteSpace=wrap;html=1;" vertex="1" parent="3VOU5mvbuk7q2b9fPozU-168">
          <mxGeometry y="30" width="180" height="30" as="geometry" />
        </mxCell>
        <mxCell id="3VOU5mvbuk7q2b9fPozU-170" value="first_name [ VARCHAR 255 ]" style="text;strokeColor=none;fillColor=none;align=left;verticalAlign=middle;spacingLeft=4;spacingRight=4;overflow=hidden;points=[[0,0.5],[1,0.5]];portConstraint=eastwest;rotatable=0;whiteSpace=wrap;html=1;" vertex="1" parent="3VOU5mvbuk7q2b9fPozU-168">
          <mxGeometry y="60" width="180" height="30" as="geometry" />
        </mxCell>
        <mxCell id="3VOU5mvbuk7q2b9fPozU-182" value="Last_name [ VARCHAR 255 ]" style="text;strokeColor=none;fillColor=none;align=left;verticalAlign=middle;spacingLeft=4;spacingRight=4;overflow=hidden;points=[[0,0.5],[1,0.5]];portConstraint=eastwest;rotatable=0;whiteSpace=wrap;html=1;" vertex="1" parent="3VOU5mvbuk7q2b9fPozU-168">
          <mxGeometry y="90" width="180" height="30" as="geometry" />
        </mxCell>
        <mxCell id="3VOU5mvbuk7q2b9fPozU-171" value="Weight [ INT 11 ]" style="text;strokeColor=none;fillColor=none;align=left;verticalAlign=middle;spacingLeft=4;spacingRight=4;overflow=hidden;points=[[0,0.5],[1,0.5]];portConstraint=eastwest;rotatable=0;whiteSpace=wrap;html=1;" vertex="1" parent="3VOU5mvbuk7q2b9fPozU-168">
          <mxGeometry y="120" width="180" height="30" as="geometry" />
        </mxCell>
        <mxCell id="3VOU5mvbuk7q2b9fPozU-183" value="Inventory [ JSON ]" style="text;strokeColor=none;fillColor=none;align=left;verticalAlign=middle;spacingLeft=4;spacingRight=4;overflow=hidden;points=[[0,0.5],[1,0.5]];portConstraint=eastwest;rotatable=0;whiteSpace=wrap;html=1;" vertex="1" parent="3VOU5mvbuk7q2b9fPozU-168">
          <mxGeometry y="150" width="180" height="30" as="geometry" />
        </mxCell>
        <mxCell id="3VOU5mvbuk7q2b9fPozU-206" value="id_Injuries [ FK ] [ INT 11 ]" style="text;strokeColor=none;fillColor=none;align=left;verticalAlign=middle;spacingLeft=4;spacingRight=4;overflow=hidden;points=[[0,0.5],[1,0.5]];portConstraint=eastwest;rotatable=0;whiteSpace=wrap;html=1;" vertex="1" parent="3VOU5mvbuk7q2b9fPozU-168">
          <mxGeometry y="180" width="180" height="30" as="geometry" />
        </mxCell>
        <mxCell id="3VOU5mvbuk7q2b9fPozU-207" value="id_Skills&amp;nbsp;[ FK ] [ INT 11 ]" style="text;strokeColor=none;fillColor=none;align=left;verticalAlign=middle;spacingLeft=4;spacingRight=4;overflow=hidden;points=[[0,0.5],[1,0.5]];portConstraint=eastwest;rotatable=0;whiteSpace=wrap;html=1;" vertex="1" parent="3VOU5mvbuk7q2b9fPozU-168">
          <mxGeometry y="210" width="180" height="30" as="geometry" />
        </mxCell>
        <mxCell id="3VOU5mvbuk7q2b9fPozU-198" value="id_Jobs&amp;nbsp;[ FK ] [ INT 11 ]" style="text;strokeColor=none;fillColor=none;align=left;verticalAlign=middle;spacingLeft=4;spacingRight=4;overflow=hidden;points=[[0,0.5],[1,0.5]];portConstraint=eastwest;rotatable=0;whiteSpace=wrap;html=1;" vertex="1" parent="3VOU5mvbuk7q2b9fPozU-168">
          <mxGeometry y="240" width="180" height="30" as="geometry" />
        </mxCell>
        <mxCell id="3VOU5mvbuk7q2b9fPozU-218" value="id_Traits&amp;nbsp;[ FK ] [ INT 11 ]" style="text;strokeColor=none;fillColor=none;align=left;verticalAlign=middle;spacingLeft=4;spacingRight=4;overflow=hidden;points=[[0,0.5],[1,0.5]];portConstraint=eastwest;rotatable=0;whiteSpace=wrap;html=1;" vertex="1" parent="3VOU5mvbuk7q2b9fPozU-168">
          <mxGeometry y="270" width="180" height="30" as="geometry" />
        </mxCell>
        <mxCell id="3VOU5mvbuk7q2b9fPozU-172" value="Job" style="swimlane;fontStyle=0;childLayout=stackLayout;horizontal=1;startSize=30;horizontalStack=0;resizeParent=1;resizeParentMax=0;resizeLast=0;collapsible=1;marginBottom=0;whiteSpace=wrap;html=1;" vertex="1" parent="1">
          <mxGeometry x="373.25" y="1930" width="140" height="150" as="geometry" />
        </mxCell>
        <mxCell id="3VOU5mvbuk7q2b9fPozU-173" value="id [ PK ] [ INT 11 ]" style="text;strokeColor=none;fillColor=none;align=left;verticalAlign=middle;spacingLeft=4;spacingRight=4;overflow=hidden;points=[[0,0.5],[1,0.5]];portConstraint=eastwest;rotatable=0;whiteSpace=wrap;html=1;" vertex="1" parent="3VOU5mvbuk7q2b9fPozU-172">
          <mxGeometry y="30" width="140" height="30" as="geometry" />
        </mxCell>
        <mxCell id="3VOU5mvbuk7q2b9fPozU-174" value="Name [ VARCHAR 255 ]" style="text;strokeColor=none;fillColor=none;align=left;verticalAlign=middle;spacingLeft=4;spacingRight=4;overflow=hidden;points=[[0,0.5],[1,0.5]];portConstraint=eastwest;rotatable=0;whiteSpace=wrap;html=1;" vertex="1" parent="3VOU5mvbuk7q2b9fPozU-172">
          <mxGeometry y="60" width="140" height="30" as="geometry" />
        </mxCell>
        <mxCell id="3VOU5mvbuk7q2b9fPozU-175" value="Bonus [ INT 11 ]" style="text;strokeColor=none;fillColor=none;align=left;verticalAlign=middle;spacingLeft=4;spacingRight=4;overflow=hidden;points=[[0,0.5],[1,0.5]];portConstraint=eastwest;rotatable=0;whiteSpace=wrap;html=1;" vertex="1" parent="3VOU5mvbuk7q2b9fPozU-172">
          <mxGeometry y="90" width="140" height="30" as="geometry" />
        </mxCell>
        <mxCell id="3VOU5mvbuk7q2b9fPozU-176" value="Malus [ INT 11 ]" style="text;strokeColor=none;fillColor=none;align=left;verticalAlign=middle;spacingLeft=4;spacingRight=4;overflow=hidden;points=[[0,0.5],[1,0.5]];portConstraint=eastwest;rotatable=0;whiteSpace=wrap;html=1;" vertex="1" parent="3VOU5mvbuk7q2b9fPozU-172">
          <mxGeometry y="120" width="140" height="30" as="geometry" />
        </mxCell>
        <mxCell id="3VOU5mvbuk7q2b9fPozU-177" value="Traits" style="swimlane;fontStyle=0;childLayout=stackLayout;horizontal=1;startSize=30;horizontalStack=0;resizeParent=1;resizeParentMax=0;resizeLast=0;collapsible=1;marginBottom=0;whiteSpace=wrap;html=1;" vertex="1" parent="1">
          <mxGeometry x="371.25" y="2100" width="140" height="150" as="geometry" />
        </mxCell>
        <mxCell id="3VOU5mvbuk7q2b9fPozU-178" value="id [ PK ] [ INT 11 ]" style="text;strokeColor=none;fillColor=none;align=left;verticalAlign=middle;spacingLeft=4;spacingRight=4;overflow=hidden;points=[[0,0.5],[1,0.5]];portConstraint=eastwest;rotatable=0;whiteSpace=wrap;html=1;" vertex="1" parent="3VOU5mvbuk7q2b9fPozU-177">
          <mxGeometry y="30" width="140" height="30" as="geometry" />
        </mxCell>
        <mxCell id="3VOU5mvbuk7q2b9fPozU-179" value="Name [ VARCHAR 255 ]" style="text;strokeColor=none;fillColor=none;align=left;verticalAlign=middle;spacingLeft=4;spacingRight=4;overflow=hidden;points=[[0,0.5],[1,0.5]];portConstraint=eastwest;rotatable=0;whiteSpace=wrap;html=1;" vertex="1" parent="3VOU5mvbuk7q2b9fPozU-177">
          <mxGeometry y="60" width="140" height="30" as="geometry" />
        </mxCell>
        <mxCell id="3VOU5mvbuk7q2b9fPozU-180" value="Bonus [ INT 11 ]" style="text;strokeColor=none;fillColor=none;align=left;verticalAlign=middle;spacingLeft=4;spacingRight=4;overflow=hidden;points=[[0,0.5],[1,0.5]];portConstraint=eastwest;rotatable=0;whiteSpace=wrap;html=1;" vertex="1" parent="3VOU5mvbuk7q2b9fPozU-177">
          <mxGeometry y="90" width="140" height="30" as="geometry" />
        </mxCell>
        <mxCell id="3VOU5mvbuk7q2b9fPozU-181" value="Malus [ INT 11 ]" style="text;strokeColor=none;fillColor=none;align=left;verticalAlign=middle;spacingLeft=4;spacingRight=4;overflow=hidden;points=[[0,0.5],[1,0.5]];portConstraint=eastwest;rotatable=0;whiteSpace=wrap;html=1;" vertex="1" parent="3VOU5mvbuk7q2b9fPozU-177">
          <mxGeometry y="120" width="140" height="30" as="geometry" />
        </mxCell>
        <mxCell id="3VOU5mvbuk7q2b9fPozU-184" value="Items" style="swimlane;fontStyle=0;childLayout=stackLayout;horizontal=1;startSize=30;horizontalStack=0;resizeParent=1;resizeParentMax=0;resizeLast=0;collapsible=1;marginBottom=0;whiteSpace=wrap;html=1;" vertex="1" parent="1">
          <mxGeometry x="531.25" y="1930" width="150" height="180" as="geometry" />
        </mxCell>
        <mxCell id="3VOU5mvbuk7q2b9fPozU-185" value="id [ PK ] [ INT 11 ]" style="text;strokeColor=none;fillColor=none;align=left;verticalAlign=middle;spacingLeft=4;spacingRight=4;overflow=hidden;points=[[0,0.5],[1,0.5]];portConstraint=eastwest;rotatable=0;whiteSpace=wrap;html=1;" vertex="1" parent="3VOU5mvbuk7q2b9fPozU-184">
          <mxGeometry y="30" width="150" height="30" as="geometry" />
        </mxCell>
        <mxCell id="3VOU5mvbuk7q2b9fPozU-186" value="Name [ VARCHAR 255 ]" style="text;strokeColor=none;fillColor=none;align=left;verticalAlign=middle;spacingLeft=4;spacingRight=4;overflow=hidden;points=[[0,0.5],[1,0.5]];portConstraint=eastwest;rotatable=0;whiteSpace=wrap;html=1;" vertex="1" parent="3VOU5mvbuk7q2b9fPozU-184">
          <mxGeometry y="60" width="150" height="30" as="geometry" />
        </mxCell>
        <mxCell id="3VOU5mvbuk7q2b9fPozU-187" value="Durability [ TIME ]" style="text;strokeColor=none;fillColor=none;align=left;verticalAlign=middle;spacingLeft=4;spacingRight=4;overflow=hidden;points=[[0,0.5],[1,0.5]];portConstraint=eastwest;rotatable=0;whiteSpace=wrap;html=1;" vertex="1" parent="3VOU5mvbuk7q2b9fPozU-184">
          <mxGeometry y="90" width="150" height="30" as="geometry" />
        </mxCell>
        <mxCell id="3VOU5mvbuk7q2b9fPozU-247" value="Type [ VARCHAR 255 ]" style="text;strokeColor=none;fillColor=none;align=left;verticalAlign=middle;spacingLeft=4;spacingRight=4;overflow=hidden;points=[[0,0.5],[1,0.5]];portConstraint=eastwest;rotatable=0;whiteSpace=wrap;html=1;" vertex="1" parent="3VOU5mvbuk7q2b9fPozU-184">
          <mxGeometry y="120" width="150" height="30" as="geometry" />
        </mxCell>
        <mxCell id="3VOU5mvbuk7q2b9fPozU-188" value="Picked_up [ BOOLEAN ]" style="text;strokeColor=none;fillColor=none;align=left;verticalAlign=middle;spacingLeft=4;spacingRight=4;overflow=hidden;points=[[0,0.5],[1,0.5]];portConstraint=eastwest;rotatable=0;whiteSpace=wrap;html=1;" vertex="1" parent="3VOU5mvbuk7q2b9fPozU-184">
          <mxGeometry y="150" width="150" height="30" as="geometry" />
        </mxCell>
        <mxCell id="3VOU5mvbuk7q2b9fPozU-194" value="Skills" style="swimlane;fontStyle=0;childLayout=stackLayout;horizontal=1;startSize=30;horizontalStack=0;resizeParent=1;resizeParentMax=0;resizeLast=0;collapsible=1;marginBottom=0;whiteSpace=wrap;html=1;" vertex="1" parent="1">
          <mxGeometry x="371.25" y="2430" width="140" height="120" as="geometry" />
        </mxCell>
        <mxCell id="3VOU5mvbuk7q2b9fPozU-195" value="id [ PK ] [ INT 11 ]" style="text;strokeColor=none;fillColor=none;align=left;verticalAlign=middle;spacingLeft=4;spacingRight=4;overflow=hidden;points=[[0,0.5],[1,0.5]];portConstraint=eastwest;rotatable=0;whiteSpace=wrap;html=1;" vertex="1" parent="3VOU5mvbuk7q2b9fPozU-194">
          <mxGeometry y="30" width="140" height="30" as="geometry" />
        </mxCell>
        <mxCell id="3VOU5mvbuk7q2b9fPozU-197" value="Name [ VARCHAR 255 ]" style="text;strokeColor=none;fillColor=none;align=left;verticalAlign=middle;spacingLeft=4;spacingRight=4;overflow=hidden;points=[[0,0.5],[1,0.5]];portConstraint=eastwest;rotatable=0;whiteSpace=wrap;html=1;" vertex="1" parent="3VOU5mvbuk7q2b9fPozU-194">
          <mxGeometry y="60" width="140" height="30" as="geometry" />
        </mxCell>
        <mxCell id="3VOU5mvbuk7q2b9fPozU-196" value="Level [ INT 11 ]" style="text;strokeColor=none;fillColor=none;align=left;verticalAlign=middle;spacingLeft=4;spacingRight=4;overflow=hidden;points=[[0,0.5],[1,0.5]];portConstraint=eastwest;rotatable=0;whiteSpace=wrap;html=1;" vertex="1" parent="3VOU5mvbuk7q2b9fPozU-194">
          <mxGeometry y="90" width="140" height="30" as="geometry" />
        </mxCell>
        <mxCell id="3VOU5mvbuk7q2b9fPozU-208" style="edgeStyle=orthogonalEdgeStyle;rounded=0;orthogonalLoop=1;jettySize=auto;html=1;exitX=1;exitY=0.5;exitDx=0;exitDy=0;entryX=0;entryY=0.5;entryDx=0;entryDy=0;endArrow=none;endFill=0;" edge="1" parent="1" source="3VOU5mvbuk7q2b9fPozU-170" target="3VOU5mvbuk7q2b9fPozU-174">
          <mxGeometry relative="1" as="geometry" />
        </mxCell>
        <mxCell id="3VOU5mvbuk7q2b9fPozU-210" value="Injuries" style="swimlane;fontStyle=0;childLayout=stackLayout;horizontal=1;startSize=30;horizontalStack=0;resizeParent=1;resizeParentMax=0;resizeLast=0;collapsible=1;marginBottom=0;whiteSpace=wrap;html=1;" vertex="1" parent="1">
          <mxGeometry x="371.25" y="2262" width="140" height="150" as="geometry" />
        </mxCell>
        <mxCell id="3VOU5mvbuk7q2b9fPozU-211" value="id [ PK ] [ INT 11 ]" style="text;strokeColor=none;fillColor=none;align=left;verticalAlign=middle;spacingLeft=4;spacingRight=4;overflow=hidden;points=[[0,0.5],[1,0.5]];portConstraint=eastwest;rotatable=0;whiteSpace=wrap;html=1;" vertex="1" parent="3VOU5mvbuk7q2b9fPozU-210">
          <mxGeometry y="30" width="140" height="30" as="geometry" />
        </mxCell>
        <mxCell id="3VOU5mvbuk7q2b9fPozU-212" value="Name [ VARCHAR 255 ]" style="text;strokeColor=none;fillColor=none;align=left;verticalAlign=middle;spacingLeft=4;spacingRight=4;overflow=hidden;points=[[0,0.5],[1,0.5]];portConstraint=eastwest;rotatable=0;whiteSpace=wrap;html=1;" vertex="1" parent="3VOU5mvbuk7q2b9fPozU-210">
          <mxGeometry y="60" width="140" height="30" as="geometry" />
        </mxCell>
        <mxCell id="3VOU5mvbuk7q2b9fPozU-213" value="Durability [ TIME ]" style="text;strokeColor=none;fillColor=none;align=left;verticalAlign=middle;spacingLeft=4;spacingRight=4;overflow=hidden;points=[[0,0.5],[1,0.5]];portConstraint=eastwest;rotatable=0;whiteSpace=wrap;html=1;" vertex="1" parent="3VOU5mvbuk7q2b9fPozU-210">
          <mxGeometry y="90" width="140" height="30" as="geometry" />
        </mxCell>
        <mxCell id="3VOU5mvbuk7q2b9fPozU-214" value="Type [ VARCHAR 255 ]" style="text;strokeColor=none;fillColor=none;align=left;verticalAlign=middle;spacingLeft=4;spacingRight=4;overflow=hidden;points=[[0,0.5],[1,0.5]];portConstraint=eastwest;rotatable=0;whiteSpace=wrap;html=1;" vertex="1" parent="3VOU5mvbuk7q2b9fPozU-210">
          <mxGeometry y="120" width="140" height="30" as="geometry" />
        </mxCell>
        <mxCell id="3VOU5mvbuk7q2b9fPozU-215" style="edgeStyle=orthogonalEdgeStyle;rounded=0;orthogonalLoop=1;jettySize=auto;html=1;exitX=0;exitY=0.5;exitDx=0;exitDy=0;endArrow=none;endFill=0;" edge="1" parent="1" source="3VOU5mvbuk7q2b9fPozU-212">
          <mxGeometry relative="1" as="geometry">
            <mxPoint x="171.25" y="2230" as="targetPoint" />
            <Array as="points">
              <mxPoint x="171.25" y="2337" />
            </Array>
          </mxGeometry>
        </mxCell>
        <mxCell id="3VOU5mvbuk7q2b9fPozU-217" style="edgeStyle=orthogonalEdgeStyle;rounded=0;orthogonalLoop=1;jettySize=auto;html=1;exitX=0;exitY=0.5;exitDx=0;exitDy=0;endArrow=none;endFill=0;" edge="1" parent="1" source="3VOU5mvbuk7q2b9fPozU-197">
          <mxGeometry relative="1" as="geometry">
            <mxPoint x="67.25" y="2230" as="targetPoint" />
            <Array as="points">
              <mxPoint x="67.25" y="2505" />
            </Array>
          </mxGeometry>
        </mxCell>
        <mxCell id="3VOU5mvbuk7q2b9fPozU-220" style="edgeStyle=orthogonalEdgeStyle;rounded=0;orthogonalLoop=1;jettySize=auto;html=1;exitX=0;exitY=0.5;exitDx=0;exitDy=0;entryX=1.004;entryY=0.173;entryDx=0;entryDy=0;entryPerimeter=0;endArrow=none;endFill=0;" edge="1" parent="1" source="3VOU5mvbuk7q2b9fPozU-178" target="3VOU5mvbuk7q2b9fPozU-207">
          <mxGeometry relative="1" as="geometry" />
        </mxCell>
        <mxCell id="3VOU5mvbuk7q2b9fPozU-221" value="1" style="text;html=1;strokeColor=none;fillColor=none;align=center;verticalAlign=middle;whiteSpace=wrap;rounded=0;" vertex="1" parent="1">
          <mxGeometry x="71.25" y="2230" width="20" height="30" as="geometry" />
        </mxCell>
        <mxCell id="3VOU5mvbuk7q2b9fPozU-222" value="1" style="text;html=1;strokeColor=none;fillColor=none;align=center;verticalAlign=middle;whiteSpace=wrap;rounded=0;" vertex="1" parent="1">
          <mxGeometry x="171.25" y="2232" width="20" height="30" as="geometry" />
        </mxCell>
        <mxCell id="3VOU5mvbuk7q2b9fPozU-223" value="1" style="text;html=1;strokeColor=none;fillColor=none;align=center;verticalAlign=middle;whiteSpace=wrap;rounded=0;" vertex="1" parent="1">
          <mxGeometry x="232.5" y="1970" width="20" height="30" as="geometry" />
        </mxCell>
        <mxCell id="3VOU5mvbuk7q2b9fPozU-224" value="1" style="text;html=1;strokeColor=none;fillColor=none;align=center;verticalAlign=middle;whiteSpace=wrap;rounded=0;" vertex="1" parent="1">
          <mxGeometry x="232.5" y="2110" width="20" height="30" as="geometry" />
        </mxCell>
        <mxCell id="3VOU5mvbuk7q2b9fPozU-225" value="*" style="text;html=1;strokeColor=none;fillColor=none;align=center;verticalAlign=middle;whiteSpace=wrap;rounded=0;" vertex="1" parent="1">
          <mxGeometry x="346.25" y="2300" width="20" height="30" as="geometry" />
        </mxCell>
        <mxCell id="3VOU5mvbuk7q2b9fPozU-226" value="*" style="text;html=1;strokeColor=none;fillColor=none;align=center;verticalAlign=middle;whiteSpace=wrap;rounded=0;" vertex="1" parent="1">
          <mxGeometry x="351.25" y="2475" width="20" height="30" as="geometry" />
        </mxCell>
        <mxCell id="3VOU5mvbuk7q2b9fPozU-227" value="*" style="text;html=1;strokeColor=none;fillColor=none;align=center;verticalAlign=middle;whiteSpace=wrap;rounded=0;" vertex="1" parent="1">
          <mxGeometry x="347.5" y="2110" width="20" height="30" as="geometry" />
        </mxCell>
        <mxCell id="3VOU5mvbuk7q2b9fPozU-228" value="1" style="text;html=1;strokeColor=none;fillColor=none;align=center;verticalAlign=middle;whiteSpace=wrap;rounded=0;" vertex="1" parent="1">
          <mxGeometry x="351.25" y="1970" width="20" height="30" as="geometry" />
        </mxCell>
        <mxCell id="3VOU5mvbuk7q2b9fPozU-229" value="Vehicules" style="swimlane;fontStyle=0;childLayout=stackLayout;horizontal=1;startSize=30;horizontalStack=0;resizeParent=1;resizeParentMax=0;resizeLast=0;collapsible=1;marginBottom=0;whiteSpace=wrap;html=1;" vertex="1" parent="1">
          <mxGeometry x="531.25" y="2121" width="140" height="240" as="geometry" />
        </mxCell>
        <mxCell id="3VOU5mvbuk7q2b9fPozU-230" value="id [ PK ] [ INT 11 ]" style="text;strokeColor=none;fillColor=none;align=left;verticalAlign=middle;spacingLeft=4;spacingRight=4;overflow=hidden;points=[[0,0.5],[1,0.5]];portConstraint=eastwest;rotatable=0;whiteSpace=wrap;html=1;" vertex="1" parent="3VOU5mvbuk7q2b9fPozU-229">
          <mxGeometry y="30" width="140" height="30" as="geometry" />
        </mxCell>
        <mxCell id="3VOU5mvbuk7q2b9fPozU-233" value="Brand [ VARCHAR ]" style="text;strokeColor=none;fillColor=none;align=left;verticalAlign=middle;spacingLeft=4;spacingRight=4;overflow=hidden;points=[[0,0.5],[1,0.5]];portConstraint=eastwest;rotatable=0;whiteSpace=wrap;html=1;" vertex="1" parent="3VOU5mvbuk7q2b9fPozU-229">
          <mxGeometry y="60" width="140" height="30" as="geometry" />
        </mxCell>
        <mxCell id="3VOU5mvbuk7q2b9fPozU-234" value="Model [ VARCHAR ]" style="text;strokeColor=none;fillColor=none;align=left;verticalAlign=middle;spacingLeft=4;spacingRight=4;overflow=hidden;points=[[0,0.5],[1,0.5]];portConstraint=eastwest;rotatable=0;whiteSpace=wrap;html=1;" vertex="1" parent="3VOU5mvbuk7q2b9fPozU-229">
          <mxGeometry y="90" width="140" height="30" as="geometry" />
        </mxCell>
        <mxCell id="3VOU5mvbuk7q2b9fPozU-232" value="Durability [ TIME ]" style="text;strokeColor=none;fillColor=none;align=left;verticalAlign=middle;spacingLeft=4;spacingRight=4;overflow=hidden;points=[[0,0.5],[1,0.5]];portConstraint=eastwest;rotatable=0;whiteSpace=wrap;html=1;" vertex="1" parent="3VOU5mvbuk7q2b9fPozU-229">
          <mxGeometry y="120" width="140" height="30" as="geometry" />
        </mxCell>
        <mxCell id="3VOU5mvbuk7q2b9fPozU-236" value="Durability [ TIME ]" style="text;strokeColor=none;fillColor=none;align=left;verticalAlign=middle;spacingLeft=4;spacingRight=4;overflow=hidden;points=[[0,0.5],[1,0.5]];portConstraint=eastwest;rotatable=0;whiteSpace=wrap;html=1;" vertex="1" parent="3VOU5mvbuk7q2b9fPozU-229">
          <mxGeometry y="150" width="140" height="30" as="geometry" />
        </mxCell>
        <mxCell id="3VOU5mvbuk7q2b9fPozU-237" value="Gas [ INT ]" style="text;strokeColor=none;fillColor=none;align=left;verticalAlign=middle;spacingLeft=4;spacingRight=4;overflow=hidden;points=[[0,0.5],[1,0.5]];portConstraint=eastwest;rotatable=0;whiteSpace=wrap;html=1;" vertex="1" parent="3VOU5mvbuk7q2b9fPozU-229">
          <mxGeometry y="180" width="140" height="30" as="geometry" />
        </mxCell>
        <mxCell id="3VOU5mvbuk7q2b9fPozU-238" value="Statut [ BOOLEAN ]" style="text;strokeColor=none;fillColor=none;align=left;verticalAlign=middle;spacingLeft=4;spacingRight=4;overflow=hidden;points=[[0,0.5],[1,0.5]];portConstraint=eastwest;rotatable=0;whiteSpace=wrap;html=1;" vertex="1" parent="3VOU5mvbuk7q2b9fPozU-229">
          <mxGeometry y="210" width="140" height="30" as="geometry" />
        </mxCell>
        <mxCell id="3VOU5mvbuk7q2b9fPozU-239" value="Zombies" style="swimlane;fontStyle=0;childLayout=stackLayout;horizontal=1;startSize=30;horizontalStack=0;resizeParent=1;resizeParentMax=0;resizeLast=0;collapsible=1;marginBottom=0;whiteSpace=wrap;html=1;" vertex="1" parent="1">
          <mxGeometry x="531.25" y="2370" width="140" height="120" as="geometry" />
        </mxCell>
        <mxCell id="3VOU5mvbuk7q2b9fPozU-240" value="id [ PK ] [ INT 11 ]" style="text;strokeColor=none;fillColor=none;align=left;verticalAlign=middle;spacingLeft=4;spacingRight=4;overflow=hidden;points=[[0,0.5],[1,0.5]];portConstraint=eastwest;rotatable=0;whiteSpace=wrap;html=1;" vertex="1" parent="3VOU5mvbuk7q2b9fPozU-239">
          <mxGeometry y="30" width="140" height="30" as="geometry" />
        </mxCell>
        <mxCell id="3VOU5mvbuk7q2b9fPozU-241" value="Type [ VARCHAR ]" style="text;strokeColor=none;fillColor=none;align=left;verticalAlign=middle;spacingLeft=4;spacingRight=4;overflow=hidden;points=[[0,0.5],[1,0.5]];portConstraint=eastwest;rotatable=0;whiteSpace=wrap;html=1;" vertex="1" parent="3VOU5mvbuk7q2b9fPozU-239">
          <mxGeometry y="60" width="140" height="30" as="geometry" />
        </mxCell>
        <mxCell id="3VOU5mvbuk7q2b9fPozU-246" value="Inventory [ JSON ]" style="text;strokeColor=none;fillColor=none;align=left;verticalAlign=middle;spacingLeft=4;spacingRight=4;overflow=hidden;points=[[0,0.5],[1,0.5]];portConstraint=eastwest;rotatable=0;whiteSpace=wrap;html=1;" vertex="1" parent="3VOU5mvbuk7q2b9fPozU-239">
          <mxGeometry y="90" width="140" height="30" as="geometry" />
        </mxCell>
        <mxCell id="3VOU5mvbuk7q2b9fPozU-248" value="&lt;font style=&quot;font-size: 32px;&quot;&gt;&lt;b&gt;Exercice 1 :&lt;/b&gt;&lt;/font&gt;" style="text;html=1;strokeColor=#666666;fillColor=#f5f5f5;align=center;verticalAlign=middle;whiteSpace=wrap;rounded=0;fontColor=#333333;strokeWidth=1;spacingTop=0;spacing=2;" vertex="1" parent="1">
          <mxGeometry x="37.5" y="-20" width="180" height="30" as="geometry" />
        </mxCell>
        <mxCell id="3VOU5mvbuk7q2b9fPozU-249" value="&lt;font style=&quot;font-size: 32px;&quot;&gt;&lt;b&gt;Exercice 2 :&lt;/b&gt;&lt;/font&gt;" style="text;html=1;strokeColor=#666666;fillColor=#f5f5f5;align=center;verticalAlign=middle;whiteSpace=wrap;rounded=0;fontColor=#333333;strokeWidth=1;spacingTop=0;spacing=2;" vertex="1" parent="1">
          <mxGeometry x="45" y="220" width="180" height="30" as="geometry" />
        </mxCell>
        <mxCell id="3VOU5mvbuk7q2b9fPozU-250" value="&lt;font style=&quot;font-size: 32px;&quot;&gt;&lt;b&gt;Exercice 3 :&lt;/b&gt;&lt;/font&gt;" style="text;html=1;strokeColor=#666666;fillColor=#f5f5f5;align=center;verticalAlign=middle;whiteSpace=wrap;rounded=0;fontColor=#333333;strokeWidth=1;spacingTop=0;spacing=2;" vertex="1" parent="1">
          <mxGeometry x="37.5" y="740" width="180" height="30" as="geometry" />
        </mxCell>
        <mxCell id="3VOU5mvbuk7q2b9fPozU-251" value="&lt;font style=&quot;font-size: 32px;&quot;&gt;&lt;b&gt;Exercice 4 :&lt;/b&gt;&lt;/font&gt;" style="text;html=1;strokeColor=#666666;fillColor=#f5f5f5;align=center;verticalAlign=middle;whiteSpace=wrap;rounded=0;fontColor=#333333;strokeWidth=1;spacingTop=0;spacing=2;" vertex="1" parent="1">
          <mxGeometry x="37.5" y="875" width="180" height="30" as="geometry" />
        </mxCell>
        <mxCell id="3VOU5mvbuk7q2b9fPozU-252" value="&lt;font style=&quot;font-size: 32px;&quot;&gt;&lt;b&gt;Exercice 5 :&lt;/b&gt;&lt;/font&gt;" style="text;html=1;strokeColor=#666666;fillColor=#f5f5f5;align=center;verticalAlign=middle;whiteSpace=wrap;rounded=0;fontColor=#333333;strokeWidth=1;spacingTop=0;spacing=2;" vertex="1" parent="1">
          <mxGeometry x="40" y="1390" width="180" height="30" as="geometry" />
        </mxCell>
      </root>
    </mxGraphModel>
  </diagram>
</mxfile>
